# xmcd
#
# Track frame offsets: 
#        182
#        62192
#        115992
#        139092
#        203592
#
# Disc length: 3098 seconds
#
# Revision: 1
# Processed by: cddbd v1.5.2PL0 Copyright (c) Steve Scherf et al.
# Submitted via: ExactAudioCopy v0.99pb4
#
DISCID=450c1805
DTITLE=Roland Sante - The Queen of Heaven
DYEAR=2000
DGENRE=New Age
TTITLE0=Love of Saint Mary
TTITLE1=Rosa Mystica
TTITLE2=Evening Prayer
TTITLE3=Message of the Mother of God
TTITLE4=The Queen of Heaven
EXTD=YEAR: 2000
EXTT0=
EXTT1=
EXTT2=
EXTT3=
EXTT4=
PLAYORDER=
